<svg width="20" height="20" viewBox="0 0 20 20" fill="none" xmlns="http://www.w3.org/2000/svg">
<path fill-rule="evenodd" clip-rule="evenodd" d="M10 20C15.5228 20 20 15.5228 20 10C20 4.47715 15.5228 0 10 0C4.47715 0 0 4.47715 0 10C0 15.5228 4.47715 20 10 20ZM2 10C2 14.4 5.6 18 10 18C14.4 18 18 14.4 18 10C18 5.6 14.4 2 10 2C5.6 2 2 5.6 2 10Z" fill="#2C90EE"/>
<path fill-rule="evenodd" clip-rule="evenodd" d="M10 5C7.2 5 5 7.2 5 10C5 12.8 7.2 15 10 15C12.8 15 15 12.8 15 10C15 7.2 12.8 5 10 5Z" fill="#6B98F2"/>
</svg>